<svg version="1.1" id="Layer_1" xmlns="http://www.w3.org/2000/svg" xmlns:xlink="http://www.w3.org/1999/xlink" x="0px" y="0px"
	 width="100%" viewBox="0 0 800 800" enable-background="new 0 0 800 800" xml:space="preserve">
<path fill="#FFFFFF" opacity="1.000000" stroke="none" 
	d="
M370.000000,801.000000 
	C246.666672,801.000000 123.833336,801.000000 1.000000,801.000000 
	C1.000000,534.333313 1.000000,267.666656 1.000000,1.000000 
	C267.666656,1.000000 534.333313,1.000000 801.000000,1.000000 
	C801.000000,267.666656 801.000000,534.333313 801.000000,801.000000 
	C657.500000,801.000000 514.000000,801.000000 370.000000,801.000000 
M116.902390,336.494568 
	C116.902390,341.407379 116.902390,346.320190 116.902390,351.233002 
	C114.727829,346.522003 113.349442,341.655426 112.059425,336.765564 
	C105.572174,312.175232 99.150902,287.567291 92.541809,263.009827 
	C92.088501,261.325500 90.335045,258.753052 89.111237,258.709686 
	C79.190521,258.358032 69.251877,258.512207 59.218559,258.512207 
	C59.218559,313.807709 59.218559,368.236511 59.218559,423.017426 
	C66.946251,422.040222 74.406372,421.096832 82.118469,420.121582 
	C82.118469,380.939240 82.118469,342.424957 82.118469,303.910645 
	C82.348305,303.880066 82.578133,303.849518 82.807968,303.818939 
	C92.964798,341.553131 103.121628,379.287323 113.284813,417.045135 
	C122.475418,416.050812 131.035263,415.124725 139.744537,414.182495 
	C139.744537,362.072754 139.744537,310.481628 139.744537,258.757385 
	C132.061203,258.757385 124.637817,258.757385 116.902077,258.757385 
	C116.902077,284.526520 116.902077,310.011627 116.902390,336.494568 
M582.437012,344.499817 
	C582.604492,355.661163 582.456909,366.838959 583.040039,377.978546 
	C583.498230,386.733215 586.915283,394.532806 593.715515,400.363007 
	C606.735168,411.525391 622.034607,413.758270 638.246216,410.495697 
	C648.983887,408.334778 655.705139,400.954407 658.718201,390.704193 
	C660.242615,385.518219 660.821655,379.893341 660.862244,374.459747 
	C661.049805,349.295258 660.937378,324.128052 660.831421,298.962250 
	C660.813293,294.643311 660.521423,290.299316 659.984375,286.013458 
	C658.148315,271.359161 648.298035,260.017670 633.891296,257.540863 
	C626.308044,256.237122 618.239014,256.101196 610.605042,257.094879 
	C594.672607,259.168701 583.809631,270.484528 583.024536,286.534119 
	C582.097473,305.486938 582.570007,324.508209 582.437012,344.499817 
M488.626984,365.212158 
	C487.839935,387.458771 498.268494,398.429108 512.110413,402.551147 
	C519.907654,404.873138 528.540283,405.526520 536.723389,405.183746 
	C554.700562,404.430634 566.423462,392.853821 566.778076,374.921814 
	C567.338074,346.607727 567.274841,318.263763 566.656738,289.950317 
	C566.267517,272.121246 557.583374,261.636414 541.068726,257.444336 
	C531.600952,255.041016 521.881958,255.254028 512.396301,257.911407 
	C499.875000,261.419220 492.199921,269.742523 489.427673,282.355530 
	C488.579407,286.214844 488.505035,290.298615 488.500244,294.280121 
	C488.472168,317.608307 488.569824,340.936646 488.626984,365.212158 
M724.217407,279.667969 
	C720.754700,289.670837 717.292053,299.673706 713.591797,310.362823 
	C712.846802,308.361908 712.353943,307.134277 711.929443,305.883484 
	C706.962830,291.250732 702.058044,276.596466 696.964539,262.008118 
	C696.475647,260.607880 694.864685,258.628510 693.713562,258.586334 
	C685.596130,258.288940 677.462585,258.428406 668.902771,258.428406 
	C669.476562,260.171783 669.934509,261.725647 670.494934,263.241669 
	C678.904297,285.989685 687.404907,308.704620 695.630432,331.518768 
	C696.483765,333.885559 696.466431,337.111328 695.591309,339.470428 
	C688.311707,359.093109 680.725952,378.602051 673.256104,398.154266 
	C671.394348,403.027466 669.617615,407.933105 667.636719,413.268250 
	C676.089661,414.128113 683.828064,414.915314 691.843445,415.730652 
	C698.222290,397.994537 704.544617,380.415436 711.235779,361.810760 
	C712.118042,364.357239 712.613281,365.719238 713.063293,367.096039 
	C718.380493,383.362000 723.665405,399.638580 729.046814,415.883209 
	C729.524353,417.324554 730.463867,419.582397 731.451782,419.732788 
	C739.875732,421.014923 748.360596,421.897156 757.370056,422.963379 
	C747.835388,395.526978 738.468933,368.898895 729.445862,342.154968 
	C728.439880,339.173309 728.539124,335.242096 729.567444,332.246002 
	C735.444763,315.121674 741.768616,298.150848 747.919189,281.120117 
	C750.541931,273.857758 753.112427,266.576569 755.986755,258.518799 
	C748.269104,258.518799 741.282837,258.368958 734.314453,258.654816 
	C733.036987,258.707245 731.213074,260.285034 730.700439,261.578491 
	C728.437622,267.287689 726.561951,273.150391 724.217407,279.667969 
M158.993729,383.500000 
	C158.993729,393.089600 158.993729,402.679230 158.993729,412.497894 
	C182.680847,410.645264 205.717331,408.843506 228.863281,407.033203 
	C228.863281,399.829529 228.863281,392.962677 228.863281,385.798065 
	C214.100220,386.763336 199.707306,387.704376 185.219131,388.651672 
	C185.219131,372.942291 185.219131,357.565826 185.219131,342.056122 
	C197.028976,341.524353 208.451691,341.010010 220.007187,340.489685 
	C220.007187,333.083923 220.007187,326.152130 220.007187,319.562042 
	C208.309204,319.562042 196.879333,319.562042 185.332336,319.562042 
	C185.332336,306.530090 185.332336,293.341644 185.332336,279.444183 
	C200.252457,279.444183 214.821808,279.444183 229.286865,279.444183 
	C229.286865,271.968201 229.286865,265.210663 229.286865,258.435425 
	C205.857498,258.435425 182.779373,258.435425 158.993759,258.435425 
	C158.993759,299.974365 158.993759,341.237183 158.993729,383.500000 
M329.751038,287.499878 
	C329.751038,325.468201 329.751038,363.436523 329.751038,401.222595 
	C338.451965,401.222595 346.717010,401.222595 355.485199,401.222595 
	C355.485199,380.243500 355.485199,359.808533 355.485199,338.673462 
	C366.892456,338.673462 377.804932,338.673462 388.638000,338.673462 
	C388.638000,331.383179 388.638000,324.804565 388.638000,317.912048 
	C377.535370,317.912048 366.771271,317.912048 355.999390,317.912048 
	C355.999390,304.678650 355.999390,291.774567 355.999390,278.306580 
	C370.092041,278.306580 383.848389,278.306580 397.690094,278.306580 
	C397.690094,271.200073 397.690094,264.666840 397.690094,258.282410 
	C374.893585,258.282410 352.460266,258.282410 329.751007,258.282410 
	C329.751007,267.877594 329.751007,277.188721 329.751038,287.499878 
M290.067322,387.497284 
	C290.067322,351.405487 290.067322,315.313690 290.067322,278.702057 
	C299.477020,278.702057 308.100494,278.702057 317.007507,278.702057 
	C317.007507,271.577637 317.007507,264.972870 317.007507,258.281311 
	C290.657471,258.281311 264.398071,258.281311 237.984589,258.281311 
	C237.984589,265.310516 237.984589,272.047729 237.984589,279.142822 
	C246.900024,279.142822 255.500122,279.142822 264.563416,279.142822 
	C264.563416,321.199707 264.563416,362.898285 264.563416,404.747986 
	C273.306610,404.316254 281.563324,403.908539 290.065521,403.488708 
	C290.065521,398.140594 290.065521,393.317871 290.067322,387.497284 
M476.440918,401.452789 
	C477.289459,400.939941 478.861328,400.447083 478.876129,399.911224 
	C479.048553,393.660095 478.986542,387.402496 478.986542,380.410919 
	C464.339722,380.410919 450.554932,380.410919 436.305115,380.410919 
	C436.305115,339.239868 436.305115,298.830109 436.305115,258.211304 
	C427.562073,258.211304 419.297028,258.211304 410.883972,258.211304 
	C410.883972,305.591125 410.883972,352.835114 410.883972,401.427673 
	C432.652832,401.427673 454.110107,401.427673 476.440918,401.452789 
z"/>
<path fill="#E00808" opacity="1.000000" stroke="none" 
	d="
M116.902237,335.995636 
	C116.902077,310.011627 116.902077,284.526520 116.902077,258.757385 
	C124.637817,258.757385 132.061203,258.757385 139.744537,258.757385 
	C139.744537,310.481628 139.744537,362.072754 139.744537,414.182495 
	C131.035263,415.124725 122.475418,416.050812 113.284813,417.045135 
	C103.121628,379.287323 92.964798,341.553131 82.807968,303.818939 
	C82.578133,303.849518 82.348305,303.880066 82.118469,303.910645 
	C82.118469,342.424957 82.118469,380.939240 82.118469,420.121582 
	C74.406372,421.096832 66.946251,422.040222 59.218559,423.017426 
	C59.218559,368.236511 59.218559,313.807709 59.218559,258.512207 
	C69.251877,258.512207 79.190521,258.358032 89.111237,258.709686 
	C90.335045,258.753052 92.088501,261.325500 92.541809,263.009827 
	C99.150902,287.567291 105.572174,312.175232 112.059425,336.765564 
	C113.349442,341.655426 114.727829,346.522003 116.902390,351.233002 
	C116.902390,346.320190 116.902390,341.407379 116.902237,335.995636 
z"/>
<path fill="#E00909" opacity="1.000000" stroke="none" 
	d="
M582.436401,343.999817 
	C582.570007,324.508209 582.097473,305.486938 583.024536,286.534119 
	C583.809631,270.484528 594.672607,259.168701 610.605042,257.094879 
	C618.239014,256.101196 626.308044,256.237122 633.891296,257.540863 
	C648.298035,260.017670 658.148315,271.359161 659.984375,286.013458 
	C660.521423,290.299316 660.813293,294.643311 660.831421,298.962250 
	C660.937378,324.128052 661.049805,349.295258 660.862244,374.459747 
	C660.821655,379.893341 660.242615,385.518219 658.718201,390.704193 
	C655.705139,400.954407 648.983887,408.334778 638.246216,410.495697 
	C622.034607,413.758270 606.735168,411.525391 593.715515,400.363007 
	C586.915283,394.532806 583.498230,386.733215 583.040039,377.978546 
	C582.456909,366.838959 582.604492,355.661163 582.436401,343.999817 
M635.014038,352.500000 
	C634.962646,333.671387 634.946594,314.842560 634.823547,296.014435 
	C634.804077,293.035034 634.549500,290.009521 633.968811,287.091827 
	C632.905579,281.748810 628.953125,278.458313 623.521423,277.954620 
	C613.295776,277.006409 608.156555,281.770813 608.146179,292.647491 
	C608.120728,319.307373 608.232727,345.967407 608.322571,372.627289 
	C608.328674,374.451935 608.513611,376.289551 608.777893,378.097412 
	C609.997375,386.438965 615.632324,390.593933 624.828064,389.998566 
	C631.185425,389.587006 634.884094,385.012299 635.014282,376.993225 
	C635.141357,369.164215 635.026306,361.331238 635.014038,352.500000 
z"/>
<path fill="#E00808" opacity="1.000000" stroke="none" 
	d="
M488.626038,364.738556 
	C488.569824,340.936646 488.472168,317.608307 488.500244,294.280121 
	C488.505035,290.298615 488.579407,286.214844 489.427673,282.355530 
	C492.199921,269.742523 499.875000,261.419220 512.396301,257.911407 
	C521.881958,255.254028 531.600952,255.041016 541.068726,257.444336 
	C557.583374,261.636414 566.267517,272.121246 566.656738,289.950317 
	C567.274841,318.263763 567.338074,346.607727 566.778076,374.921814 
	C566.423462,392.853821 554.700562,404.430634 536.723389,405.183746 
	C528.540283,405.526520 519.907654,404.873138 512.110413,402.551147 
	C498.268494,398.429108 487.839935,387.458771 488.626038,364.738556 
M538.743347,281.959015 
	C535.822693,280.297333 533.056580,277.636017 529.953247,277.156494 
	C519.566040,275.551605 514.237427,280.661865 514.208008,291.705902 
	C514.139771,317.322418 514.194092,342.939270 514.227600,368.555969 
	C514.229736,370.211090 514.360046,371.885406 514.631409,373.517456 
	C515.945251,381.420013 521.215515,385.369873 529.543579,384.775116 
	C537.368469,384.216248 540.786743,380.526520 541.210693,372.166138 
	C541.261169,371.170013 541.282959,370.171173 541.279907,369.173706 
	C541.202209,343.557129 541.186340,317.939911 540.953491,292.324707 
	C540.924194,289.094818 539.749573,285.875336 538.743347,281.959015 
z"/>
<path fill="#E00909" opacity="1.000000" stroke="none" 
	d="
M724.381714,279.312744 
	C726.561951,273.150391 728.437622,267.287689 730.700439,261.578491 
	C731.213074,260.285034 733.036987,258.707245 734.314453,258.654816 
	C741.282837,258.368958 748.269104,258.518799 755.986755,258.518799 
	C753.112427,266.576569 750.541931,273.857758 747.919189,281.120117 
	C741.768616,298.150848 735.444763,315.121674 729.567444,332.246002 
	C728.539124,335.242096 728.439880,339.173309 729.445862,342.154968 
	C738.468933,368.898895 747.835388,395.526978 757.370056,422.963379 
	C748.360596,421.897156 739.875732,421.014923 731.451782,419.732788 
	C730.463867,419.582397 729.524353,417.324554 729.046814,415.883209 
	C723.665405,399.638580 718.380493,383.362000 713.063293,367.096039 
	C712.613281,365.719238 712.118042,364.357239 711.235779,361.810760 
	C704.544617,380.415436 698.222290,397.994537 691.843445,415.730652 
	C683.828064,414.915314 676.089661,414.128113 667.636719,413.268250 
	C669.617615,407.933105 671.394348,403.027466 673.256104,398.154266 
	C680.725952,378.602051 688.311707,359.093109 695.591309,339.470428 
	C696.466431,337.111328 696.483765,333.885559 695.630432,331.518768 
	C687.404907,308.704620 678.904297,285.989685 670.494934,263.241669 
	C669.934509,261.725647 669.476562,260.171783 668.902771,258.428406 
	C677.462585,258.428406 685.596130,258.288940 693.713562,258.586334 
	C694.864685,258.628510 696.475647,260.607880 696.964539,262.008118 
	C702.058044,276.596466 706.962830,291.250732 711.929443,305.883484 
	C712.353943,307.134277 712.846802,308.361908 713.591797,310.362823 
	C717.292053,299.673706 720.754700,289.670837 724.381714,279.312744 
z"/>
<path fill="#E00909" opacity="1.000000" stroke="none" 
	d="
M158.993744,383.000000 
	C158.993759,341.237183 158.993759,299.974365 158.993759,258.435425 
	C182.779373,258.435425 205.857498,258.435425 229.286865,258.435425 
	C229.286865,265.210663 229.286865,271.968201 229.286865,279.444183 
	C214.821808,279.444183 200.252457,279.444183 185.332336,279.444183 
	C185.332336,293.341644 185.332336,306.530090 185.332336,319.562042 
	C196.879333,319.562042 208.309204,319.562042 220.007187,319.562042 
	C220.007187,326.152130 220.007187,333.083923 220.007187,340.489685 
	C208.451691,341.010010 197.028976,341.524353 185.219131,342.056122 
	C185.219131,357.565826 185.219131,372.942291 185.219131,388.651672 
	C199.707306,387.704376 214.100220,386.763336 228.863281,385.798065 
	C228.863281,392.962677 228.863281,399.829529 228.863281,407.033203 
	C205.717331,408.843506 182.680847,410.645264 158.993729,412.497894 
	C158.993729,402.679230 158.993729,393.089600 158.993744,383.000000 
z"/>
<path fill="#E00808" opacity="1.000000" stroke="none" 
	d="
M329.751038,286.999878 
	C329.751007,277.188721 329.751007,267.877594 329.751007,258.282410 
	C352.460266,258.282410 374.893585,258.282410 397.690094,258.282410 
	C397.690094,264.666840 397.690094,271.200073 397.690094,278.306580 
	C383.848389,278.306580 370.092041,278.306580 355.999390,278.306580 
	C355.999390,291.774567 355.999390,304.678650 355.999390,317.912048 
	C366.771271,317.912048 377.535370,317.912048 388.638000,317.912048 
	C388.638000,324.804565 388.638000,331.383179 388.638000,338.673462 
	C377.804932,338.673462 366.892456,338.673462 355.485199,338.673462 
	C355.485199,359.808533 355.485199,380.243500 355.485199,401.222595 
	C346.717010,401.222595 338.451965,401.222595 329.751038,401.222595 
	C329.751038,363.436523 329.751038,325.468201 329.751038,286.999878 
z"/>
<path fill="#E00A0A" opacity="1.000000" stroke="none" 
	d="
M290.066406,387.996216 
	C290.065521,393.317871 290.065521,398.140594 290.065521,403.488708 
	C281.563324,403.908539 273.306610,404.316254 264.563416,404.747986 
	C264.563416,362.898285 264.563416,321.199707 264.563416,279.142822 
	C255.500122,279.142822 246.900024,279.142822 237.984589,279.142822 
	C237.984589,272.047729 237.984589,265.310516 237.984589,258.281311 
	C264.398071,258.281311 290.657471,258.281311 317.007507,258.281311 
	C317.007507,264.972870 317.007507,271.577637 317.007507,278.702057 
	C308.100494,278.702057 299.477020,278.702057 290.067322,278.702057 
	C290.067322,315.313690 290.067322,351.405487 290.066406,387.996216 
z"/>
<path fill="#E00707" opacity="1.000000" stroke="none" 
	d="
M476.004150,401.440247 
	C454.110107,401.427673 432.652832,401.427673 410.883972,401.427673 
	C410.883972,352.835114 410.883972,305.591125 410.883972,258.211304 
	C419.297028,258.211304 427.562073,258.211304 436.305115,258.211304 
	C436.305115,298.830109 436.305115,339.239868 436.305115,380.410919 
	C450.554932,380.410919 464.339722,380.410919 478.986542,380.410919 
	C478.986542,387.402496 479.048553,393.660095 478.876129,399.911224 
	C478.861328,400.447083 477.289459,400.939941 476.004150,401.440247 
z"/>
<path fill="#FFFBFB" opacity="1.000000" stroke="none" 
	d="
M635.015747,353.000000 
	C635.026306,361.331238 635.141357,369.164215 635.014282,376.993225 
	C634.884094,385.012299 631.185425,389.587006 624.828064,389.998566 
	C615.632324,390.593933 609.997375,386.438965 608.777893,378.097412 
	C608.513611,376.289551 608.328674,374.451935 608.322571,372.627289 
	C608.232727,345.967407 608.120728,319.307373 608.146179,292.647491 
	C608.156555,281.770813 613.295776,277.006409 623.521423,277.954620 
	C628.953125,278.458313 632.905579,281.748810 633.968811,287.091827 
	C634.549500,290.009521 634.804077,293.035034 634.823547,296.014435 
	C634.946594,314.842560 634.962646,333.671387 635.015747,353.000000 
z"/>
<path fill="#FFFCFC" opacity="1.000000" stroke="none" 
	d="
M538.924500,282.305023 
	C539.749573,285.875336 540.924194,289.094818 540.953491,292.324707 
	C541.186340,317.939911 541.202209,343.557129 541.279907,369.173706 
	C541.282959,370.171173 541.261169,371.170013 541.210693,372.166138 
	C540.786743,380.526520 537.368469,384.216248 529.543579,384.775116 
	C521.215515,385.369873 515.945251,381.420013 514.631409,373.517456 
	C514.360046,371.885406 514.229736,370.211090 514.227600,368.555969 
	C514.194092,342.939270 514.139771,317.322418 514.208008,291.705902 
	C514.237427,280.661865 519.566040,275.551605 529.953247,277.156494 
	C533.056580,277.636017 535.822693,280.297333 538.924500,282.305023 
z"/>
</svg>